<mxfile host="app.diagrams.net" modified="2024-02-16T15:08:50.885Z" agent="Mozilla/5.0 (Windows NT 10.0; Win64; x64) AppleWebKit/537.36 (KHTML, like Gecko) Chrome/121.0.0.0 Safari/537.36" etag="cYwiIvkR7tsAZmQxPk3-" version="23.1.5" type="device">
  <diagram id="cscA2HB-1wFijuhcXAHs" name="Page-2">
    <mxGraphModel dx="1986" dy="605" grid="1" gridSize="10" guides="1" tooltips="1" connect="1" arrows="1" fold="1" page="1" pageScale="1" pageWidth="850" pageHeight="1100" math="0" shadow="0">
      <root>
        <mxCell id="0" />
        <mxCell id="1" parent="0" />
        <mxCell id="UbaJYVVex4F2PVmXb3_e-1" style="rounded=0;orthogonalLoop=1;jettySize=auto;html=1;exitX=0.5;exitY=1;exitDx=0;exitDy=0;entryX=0.5;entryY=0;entryDx=0;entryDy=0;endArrow=none;endFill=0;shape=link;" edge="1" parent="1" source="UbaJYVVex4F2PVmXb3_e-3" target="UbaJYVVex4F2PVmXb3_e-30">
          <mxGeometry relative="1" as="geometry" />
        </mxCell>
        <mxCell id="UbaJYVVex4F2PVmXb3_e-2" style="rounded=0;orthogonalLoop=1;jettySize=auto;html=1;exitX=1;exitY=0.75;exitDx=0;exitDy=0;entryX=0;entryY=0.5;entryDx=0;entryDy=0;endArrow=none;endFill=0;shape=link;" edge="1" parent="1" source="UbaJYVVex4F2PVmXb3_e-3" target="UbaJYVVex4F2PVmXb3_e-41">
          <mxGeometry relative="1" as="geometry" />
        </mxCell>
        <mxCell id="UbaJYVVex4F2PVmXb3_e-3" value="EMPLOYEE" style="whiteSpace=wrap;html=1;align=center;fontStyle=1" vertex="1" parent="1">
          <mxGeometry x="530" y="210" width="100" height="40" as="geometry" />
        </mxCell>
        <mxCell id="UbaJYVVex4F2PVmXb3_e-4" style="rounded=0;orthogonalLoop=1;jettySize=auto;html=1;exitX=0.5;exitY=1;exitDx=0;exitDy=0;entryX=0.25;entryY=0;entryDx=0;entryDy=0;startArrow=none;startFill=0;endArrow=none;endFill=0;" edge="1" parent="1" source="UbaJYVVex4F2PVmXb3_e-5" target="UbaJYVVex4F2PVmXb3_e-3">
          <mxGeometry relative="1" as="geometry" />
        </mxCell>
        <mxCell id="UbaJYVVex4F2PVmXb3_e-5" value="EmployeeID" style="ellipse;whiteSpace=wrap;html=1;align=center;fontStyle=4;" vertex="1" parent="1">
          <mxGeometry x="380" y="90" width="100" height="40" as="geometry" />
        </mxCell>
        <mxCell id="UbaJYVVex4F2PVmXb3_e-6" style="rounded=0;orthogonalLoop=1;jettySize=auto;html=1;exitX=0.5;exitY=1;exitDx=0;exitDy=0;entryX=0.5;entryY=0;entryDx=0;entryDy=0;endArrow=none;endFill=0;" edge="1" parent="1" source="UbaJYVVex4F2PVmXb3_e-8" target="UbaJYVVex4F2PVmXb3_e-3">
          <mxGeometry relative="1" as="geometry" />
        </mxCell>
        <mxCell id="UbaJYVVex4F2PVmXb3_e-7" style="rounded=0;orthogonalLoop=1;jettySize=auto;html=1;exitX=0.5;exitY=0;exitDx=0;exitDy=0;entryX=0.5;entryY=1;entryDx=0;entryDy=0;endArrow=none;endFill=0;" edge="1" parent="1" source="UbaJYVVex4F2PVmXb3_e-8" target="UbaJYVVex4F2PVmXb3_e-9">
          <mxGeometry relative="1" as="geometry" />
        </mxCell>
        <mxCell id="UbaJYVVex4F2PVmXb3_e-8" value="Full_Name" style="ellipse;whiteSpace=wrap;html=1;align=center;" vertex="1" parent="1">
          <mxGeometry x="490" y="80" width="100" height="40" as="geometry" />
        </mxCell>
        <mxCell id="UbaJYVVex4F2PVmXb3_e-9" value="First_Name" style="ellipse;whiteSpace=wrap;html=1;align=center;" vertex="1" parent="1">
          <mxGeometry x="420" y="30" width="100" height="40" as="geometry" />
        </mxCell>
        <mxCell id="UbaJYVVex4F2PVmXb3_e-10" style="rounded=0;orthogonalLoop=1;jettySize=auto;html=1;exitX=0.5;exitY=1;exitDx=0;exitDy=0;entryX=0.5;entryY=0;entryDx=0;entryDy=0;endArrow=none;endFill=0;" edge="1" parent="1" source="UbaJYVVex4F2PVmXb3_e-11" target="UbaJYVVex4F2PVmXb3_e-8">
          <mxGeometry relative="1" as="geometry" />
        </mxCell>
        <mxCell id="UbaJYVVex4F2PVmXb3_e-11" value="Last_Name" style="ellipse;whiteSpace=wrap;html=1;align=center;" vertex="1" parent="1">
          <mxGeometry x="540" y="30" width="100" height="40" as="geometry" />
        </mxCell>
        <mxCell id="UbaJYVVex4F2PVmXb3_e-12" style="rounded=0;orthogonalLoop=1;jettySize=auto;html=1;exitX=0.5;exitY=1;exitDx=0;exitDy=0;entryX=0.75;entryY=0;entryDx=0;entryDy=0;endArrow=none;endFill=0;" edge="1" parent="1" source="UbaJYVVex4F2PVmXb3_e-13" target="UbaJYVVex4F2PVmXb3_e-3">
          <mxGeometry relative="1" as="geometry" />
        </mxCell>
        <mxCell id="UbaJYVVex4F2PVmXb3_e-13" value="Date_of_Birth" style="ellipse;whiteSpace=wrap;html=1;align=center;" vertex="1" parent="1">
          <mxGeometry x="695" y="30" width="100" height="40" as="geometry" />
        </mxCell>
        <mxCell id="UbaJYVVex4F2PVmXb3_e-14" style="rounded=0;orthogonalLoop=1;jettySize=auto;html=1;exitX=0.5;exitY=1;exitDx=0;exitDy=0;entryX=0.5;entryY=0;entryDx=0;entryDy=0;endArrow=none;endFill=0;" edge="1" parent="1" source="UbaJYVVex4F2PVmXb3_e-15" target="UbaJYVVex4F2PVmXb3_e-3">
          <mxGeometry relative="1" as="geometry" />
        </mxCell>
        <mxCell id="UbaJYVVex4F2PVmXb3_e-15" value="Gender" style="ellipse;whiteSpace=wrap;html=1;align=center;" vertex="1" parent="1">
          <mxGeometry x="595" y="80" width="100" height="40" as="geometry" />
        </mxCell>
        <mxCell id="UbaJYVVex4F2PVmXb3_e-16" style="rounded=0;orthogonalLoop=1;jettySize=auto;html=1;exitX=0.5;exitY=1;exitDx=0;exitDy=0;entryX=1;entryY=0;entryDx=0;entryDy=0;endArrow=none;endFill=0;" edge="1" parent="1" source="UbaJYVVex4F2PVmXb3_e-17" target="UbaJYVVex4F2PVmXb3_e-3">
          <mxGeometry relative="1" as="geometry" />
        </mxCell>
        <mxCell id="UbaJYVVex4F2PVmXb3_e-17" value="Address" style="ellipse;whiteSpace=wrap;html=1;align=center;" vertex="1" parent="1">
          <mxGeometry x="730" y="80" width="100" height="40" as="geometry" />
        </mxCell>
        <mxCell id="UbaJYVVex4F2PVmXb3_e-18" style="rounded=0;orthogonalLoop=1;jettySize=auto;html=1;exitX=0;exitY=0.5;exitDx=0;exitDy=0;entryX=1;entryY=0.5;entryDx=0;entryDy=0;endArrow=none;endFill=0;" edge="1" parent="1" source="UbaJYVVex4F2PVmXb3_e-19" target="UbaJYVVex4F2PVmXb3_e-3">
          <mxGeometry relative="1" as="geometry" />
        </mxCell>
        <mxCell id="UbaJYVVex4F2PVmXb3_e-19" value="Start_date" style="ellipse;whiteSpace=wrap;html=1;align=center;" vertex="1" parent="1">
          <mxGeometry x="770" y="145" width="100" height="40" as="geometry" />
        </mxCell>
        <mxCell id="UbaJYVVex4F2PVmXb3_e-20" style="rounded=0;orthogonalLoop=1;jettySize=auto;html=1;exitX=1;exitY=1;exitDx=0;exitDy=0;entryX=0;entryY=0.5;entryDx=0;entryDy=0;endArrow=none;endFill=0;" edge="1" parent="1" source="UbaJYVVex4F2PVmXb3_e-21" target="UbaJYVVex4F2PVmXb3_e-3">
          <mxGeometry relative="1" as="geometry" />
        </mxCell>
        <mxCell id="UbaJYVVex4F2PVmXb3_e-21" value="Phone_No" style="ellipse;shape=doubleEllipse;margin=3;whiteSpace=wrap;html=1;align=center;fontStyle=0" vertex="1" parent="1">
          <mxGeometry x="270" y="105" width="100" height="40" as="geometry" />
        </mxCell>
        <mxCell id="UbaJYVVex4F2PVmXb3_e-22" style="rounded=0;orthogonalLoop=1;jettySize=auto;html=1;exitX=1;exitY=0.5;exitDx=0;exitDy=0;entryX=0;entryY=0.75;entryDx=0;entryDy=0;endArrow=none;endFill=0;" edge="1" parent="1" source="UbaJYVVex4F2PVmXb3_e-23" target="UbaJYVVex4F2PVmXb3_e-3">
          <mxGeometry relative="1" as="geometry" />
        </mxCell>
        <mxCell id="UbaJYVVex4F2PVmXb3_e-23" value="Speciality" style="ellipse;whiteSpace=wrap;html=1;align=center;" vertex="1" parent="1">
          <mxGeometry x="390" y="210" width="100" height="40" as="geometry" />
        </mxCell>
        <mxCell id="UbaJYVVex4F2PVmXb3_e-24" style="rounded=0;orthogonalLoop=1;jettySize=auto;html=1;exitX=1;exitY=1;exitDx=0;exitDy=0;entryX=0;entryY=0;entryDx=0;entryDy=0;endArrow=none;endFill=0;" edge="1" parent="1" source="UbaJYVVex4F2PVmXb3_e-25" target="UbaJYVVex4F2PVmXb3_e-23">
          <mxGeometry relative="1" as="geometry" />
        </mxCell>
        <mxCell id="UbaJYVVex4F2PVmXb3_e-25" value="DegreeName" style="ellipse;whiteSpace=wrap;html=1;align=center;" vertex="1" parent="1">
          <mxGeometry x="250" y="165" width="100" height="40" as="geometry" />
        </mxCell>
        <mxCell id="UbaJYVVex4F2PVmXb3_e-26" style="rounded=0;orthogonalLoop=1;jettySize=auto;html=1;exitX=1;exitY=0.5;exitDx=0;exitDy=0;entryX=0;entryY=1;entryDx=0;entryDy=0;endArrow=none;endFill=0;" edge="1" parent="1" source="UbaJYVVex4F2PVmXb3_e-27" target="UbaJYVVex4F2PVmXb3_e-23">
          <mxGeometry relative="1" as="geometry" />
        </mxCell>
        <mxCell id="UbaJYVVex4F2PVmXb3_e-27" value="DegreeYear" style="ellipse;whiteSpace=wrap;html=1;align=center;" vertex="1" parent="1">
          <mxGeometry x="250" y="230" width="100" height="40" as="geometry" />
        </mxCell>
        <mxCell id="UbaJYVVex4F2PVmXb3_e-28" style="rounded=0;orthogonalLoop=1;jettySize=auto;html=1;exitX=1;exitY=1;exitDx=0;exitDy=0;entryX=0.5;entryY=0;entryDx=0;entryDy=0;endArrow=none;endFill=0;" edge="1" parent="1" source="UbaJYVVex4F2PVmXb3_e-30" target="UbaJYVVex4F2PVmXb3_e-33">
          <mxGeometry relative="1" as="geometry" />
        </mxCell>
        <mxCell id="UbaJYVVex4F2PVmXb3_e-29" style="rounded=0;orthogonalLoop=1;jettySize=auto;html=1;exitX=0;exitY=1;exitDx=0;exitDy=0;endArrow=none;endFill=0;entryX=0.5;entryY=0;entryDx=0;entryDy=0;" edge="1" parent="1" source="UbaJYVVex4F2PVmXb3_e-30" target="UbaJYVVex4F2PVmXb3_e-35">
          <mxGeometry relative="1" as="geometry" />
        </mxCell>
        <mxCell id="UbaJYVVex4F2PVmXb3_e-30" value="d" style="ellipse;whiteSpace=wrap;html=1;aspect=fixed;" vertex="1" parent="1">
          <mxGeometry x="565" y="295" width="30" height="30" as="geometry" />
        </mxCell>
        <mxCell id="UbaJYVVex4F2PVmXb3_e-31" style="rounded=0;orthogonalLoop=1;jettySize=auto;html=1;exitX=1;exitY=0.75;exitDx=0;exitDy=0;entryX=0.5;entryY=0;entryDx=0;entryDy=0;endArrow=none;endFill=0;" edge="1" parent="1" source="UbaJYVVex4F2PVmXb3_e-33" target="UbaJYVVex4F2PVmXb3_e-120">
          <mxGeometry relative="1" as="geometry">
            <mxPoint x="1460" y="562" as="targetPoint" />
          </mxGeometry>
        </mxCell>
        <mxCell id="UbaJYVVex4F2PVmXb3_e-32" style="rounded=0;orthogonalLoop=1;jettySize=auto;html=1;exitX=0;exitY=0.75;exitDx=0;exitDy=0;entryX=0.5;entryY=0;entryDx=0;entryDy=0;endArrow=none;endFill=0;" edge="1" parent="1" source="UbaJYVVex4F2PVmXb3_e-33" target="UbaJYVVex4F2PVmXb3_e-136">
          <mxGeometry relative="1" as="geometry">
            <mxPoint x="160.00000000000023" y="526" as="targetPoint" />
          </mxGeometry>
        </mxCell>
        <mxCell id="UbaJYVVex4F2PVmXb3_e-33" value="&lt;b&gt;DOCTOR&lt;/b&gt;" style="whiteSpace=wrap;html=1;align=center;" vertex="1" parent="1">
          <mxGeometry x="780" y="375" width="100" height="40" as="geometry" />
        </mxCell>
        <mxCell id="UbaJYVVex4F2PVmXb3_e-34" style="rounded=0;orthogonalLoop=1;jettySize=auto;html=1;exitX=0;exitY=0.5;exitDx=0;exitDy=0;entryX=0.5;entryY=0;entryDx=0;entryDy=0;endArrow=none;endFill=0;" edge="1" parent="1" source="UbaJYVVex4F2PVmXb3_e-35" target="UbaJYVVex4F2PVmXb3_e-83">
          <mxGeometry relative="1" as="geometry" />
        </mxCell>
        <mxCell id="UbaJYVVex4F2PVmXb3_e-35" value="&lt;b&gt;NURSE&lt;/b&gt;" style="whiteSpace=wrap;html=1;align=center;" vertex="1" parent="1">
          <mxGeometry x="260" y="375" width="100" height="40" as="geometry" />
        </mxCell>
        <mxCell id="UbaJYVVex4F2PVmXb3_e-36" value="" style="shape=requiredInterface;html=1;verticalLabelPosition=bottom;sketch=0;rotation=15;" vertex="1" parent="1">
          <mxGeometry x="665" y="330" width="20" height="20" as="geometry" />
        </mxCell>
        <mxCell id="UbaJYVVex4F2PVmXb3_e-37" value="" style="shape=requiredInterface;html=1;verticalLabelPosition=bottom;sketch=0;rotation=-195;" vertex="1" parent="1">
          <mxGeometry x="475" y="328" width="20" height="20" as="geometry" />
        </mxCell>
        <mxCell id="UbaJYVVex4F2PVmXb3_e-38" style="rounded=0;orthogonalLoop=1;jettySize=auto;html=1;exitX=0.5;exitY=1;exitDx=0;exitDy=0;entryX=1;entryY=0;entryDx=0;entryDy=0;endArrow=none;endFill=0;shape=link;" edge="1" parent="1" source="UbaJYVVex4F2PVmXb3_e-39" target="UbaJYVVex4F2PVmXb3_e-45">
          <mxGeometry relative="1" as="geometry" />
        </mxCell>
        <mxCell id="UbaJYVVex4F2PVmXb3_e-39" value="&lt;b&gt;DEPARTMENT&lt;/b&gt;" style="whiteSpace=wrap;html=1;align=center;" vertex="1" parent="1">
          <mxGeometry x="1000" y="220" width="100" height="40" as="geometry" />
        </mxCell>
        <mxCell id="UbaJYVVex4F2PVmXb3_e-40" style="rounded=0;orthogonalLoop=1;jettySize=auto;html=1;exitX=1;exitY=0.5;exitDx=0;exitDy=0;entryX=0;entryY=0.5;entryDx=0;entryDy=0;endArrow=none;endFill=0;shape=link;" edge="1" parent="1" source="UbaJYVVex4F2PVmXb3_e-41" target="UbaJYVVex4F2PVmXb3_e-39">
          <mxGeometry relative="1" as="geometry" />
        </mxCell>
        <mxCell id="UbaJYVVex4F2PVmXb3_e-41" value="WORK_FOR" style="shape=rhombus;perimeter=rhombusPerimeter;whiteSpace=wrap;html=1;align=center;" vertex="1" parent="1">
          <mxGeometry x="810" y="210" width="120" height="60" as="geometry" />
        </mxCell>
        <mxCell id="UbaJYVVex4F2PVmXb3_e-42" value="N" style="text;html=1;align=center;verticalAlign=middle;resizable=0;points=[];autosize=1;" vertex="1" parent="1">
          <mxGeometry x="750" y="215" width="30" height="30" as="geometry" />
        </mxCell>
        <mxCell id="UbaJYVVex4F2PVmXb3_e-43" value="1" style="text;html=1;align=center;verticalAlign=middle;resizable=0;points=[];autosize=1;" vertex="1" parent="1">
          <mxGeometry x="940" y="215" width="30" height="30" as="geometry" />
        </mxCell>
        <mxCell id="UbaJYVVex4F2PVmXb3_e-44" style="rounded=0;orthogonalLoop=1;jettySize=auto;html=1;exitX=0;exitY=1;exitDx=0;exitDy=0;entryX=1;entryY=0.5;entryDx=0;entryDy=0;endArrow=none;endFill=0;" edge="1" parent="1" source="UbaJYVVex4F2PVmXb3_e-45" target="UbaJYVVex4F2PVmXb3_e-33">
          <mxGeometry relative="1" as="geometry" />
        </mxCell>
        <mxCell id="UbaJYVVex4F2PVmXb3_e-45" value="IS_DEAN" style="shape=rhombus;perimeter=rhombusPerimeter;whiteSpace=wrap;html=1;align=center;" vertex="1" parent="1">
          <mxGeometry x="910" y="310" width="120" height="60" as="geometry" />
        </mxCell>
        <mxCell id="UbaJYVVex4F2PVmXb3_e-46" value="1" style="text;html=1;align=center;verticalAlign=middle;resizable=0;points=[];autosize=1;" vertex="1" parent="1">
          <mxGeometry x="990" y="280" width="30" height="30" as="geometry" />
        </mxCell>
        <mxCell id="UbaJYVVex4F2PVmXb3_e-47" value="1" style="text;html=1;align=center;verticalAlign=middle;resizable=0;points=[];autosize=1;" vertex="1" parent="1">
          <mxGeometry x="890" y="348" width="30" height="30" as="geometry" />
        </mxCell>
        <mxCell id="UbaJYVVex4F2PVmXb3_e-48" style="rounded=0;orthogonalLoop=1;jettySize=auto;html=1;exitX=0.25;exitY=1;exitDx=0;exitDy=0;entryX=0.5;entryY=0;entryDx=0;entryDy=0;endArrow=none;endFill=0;" edge="1" parent="1" source="UbaJYVVex4F2PVmXb3_e-53" target="UbaJYVVex4F2PVmXb3_e-60">
          <mxGeometry relative="1" as="geometry" />
        </mxCell>
        <mxCell id="UbaJYVVex4F2PVmXb3_e-49" style="rounded=0;orthogonalLoop=1;jettySize=auto;html=1;exitX=0.5;exitY=1;exitDx=0;exitDy=0;entryX=0.5;entryY=0;entryDx=0;entryDy=0;endArrow=none;endFill=0;" edge="1" parent="1" source="UbaJYVVex4F2PVmXb3_e-53" target="UbaJYVVex4F2PVmXb3_e-61">
          <mxGeometry relative="1" as="geometry" />
        </mxCell>
        <mxCell id="UbaJYVVex4F2PVmXb3_e-50" style="rounded=0;orthogonalLoop=1;jettySize=auto;html=1;exitX=1;exitY=0.75;exitDx=0;exitDy=0;entryX=0.5;entryY=0;entryDx=0;entryDy=0;endArrow=none;endFill=0;" edge="1" parent="1" source="UbaJYVVex4F2PVmXb3_e-53" target="UbaJYVVex4F2PVmXb3_e-62">
          <mxGeometry relative="1" as="geometry" />
        </mxCell>
        <mxCell id="UbaJYVVex4F2PVmXb3_e-51" style="rounded=0;orthogonalLoop=1;jettySize=auto;html=1;exitX=1;exitY=0.5;exitDx=0;exitDy=0;entryX=0;entryY=0;entryDx=0;entryDy=0;endArrow=none;endFill=0;" edge="1" parent="1" source="UbaJYVVex4F2PVmXb3_e-53" target="UbaJYVVex4F2PVmXb3_e-63">
          <mxGeometry relative="1" as="geometry" />
        </mxCell>
        <mxCell id="UbaJYVVex4F2PVmXb3_e-52" style="rounded=0;orthogonalLoop=1;jettySize=auto;html=1;exitX=1;exitY=0;exitDx=0;exitDy=0;entryX=0.5;entryY=1;entryDx=0;entryDy=0;endArrow=none;endFill=0;" edge="1" parent="1" source="UbaJYVVex4F2PVmXb3_e-53" target="UbaJYVVex4F2PVmXb3_e-149">
          <mxGeometry relative="1" as="geometry">
            <mxPoint x="700" y="1110" as="targetPoint" />
          </mxGeometry>
        </mxCell>
        <mxCell id="UbaJYVVex4F2PVmXb3_e-53" value="&lt;b&gt;PATIENT&lt;/b&gt;" style="whiteSpace=wrap;html=1;align=center;" vertex="1" parent="1">
          <mxGeometry x="560" y="1140" width="100" height="40" as="geometry" />
        </mxCell>
        <mxCell id="UbaJYVVex4F2PVmXb3_e-54" style="rounded=0;orthogonalLoop=1;jettySize=auto;html=1;exitX=1;exitY=0.5;exitDx=0;exitDy=0;entryX=0.25;entryY=0;entryDx=0;entryDy=0;endArrow=none;endFill=0;" edge="1" parent="1" source="UbaJYVVex4F2PVmXb3_e-55" target="UbaJYVVex4F2PVmXb3_e-53">
          <mxGeometry relative="1" as="geometry" />
        </mxCell>
        <mxCell id="UbaJYVVex4F2PVmXb3_e-55" value="Name" style="ellipse;whiteSpace=wrap;html=1;align=center;" vertex="1" parent="1">
          <mxGeometry x="435" y="1100" width="100" height="40" as="geometry" />
        </mxCell>
        <mxCell id="UbaJYVVex4F2PVmXb3_e-56" style="rounded=0;orthogonalLoop=1;jettySize=auto;html=1;exitX=1;exitY=1;exitDx=0;exitDy=0;entryX=0;entryY=0;entryDx=0;entryDy=0;endArrow=none;endFill=0;" edge="1" parent="1" source="UbaJYVVex4F2PVmXb3_e-57" target="UbaJYVVex4F2PVmXb3_e-55">
          <mxGeometry relative="1" as="geometry" />
        </mxCell>
        <mxCell id="UbaJYVVex4F2PVmXb3_e-57" value="First_Name" style="ellipse;whiteSpace=wrap;html=1;align=center;" vertex="1" parent="1">
          <mxGeometry x="300" y="1040" width="100" height="40" as="geometry" />
        </mxCell>
        <mxCell id="UbaJYVVex4F2PVmXb3_e-58" style="rounded=0;orthogonalLoop=1;jettySize=auto;html=1;exitX=1;exitY=0.5;exitDx=0;exitDy=0;entryX=0;entryY=1;entryDx=0;entryDy=0;endArrow=none;endFill=0;" edge="1" parent="1" source="UbaJYVVex4F2PVmXb3_e-59" target="UbaJYVVex4F2PVmXb3_e-55">
          <mxGeometry relative="1" as="geometry" />
        </mxCell>
        <mxCell id="UbaJYVVex4F2PVmXb3_e-59" value="Last_Name" style="ellipse;whiteSpace=wrap;html=1;align=center;" vertex="1" parent="1">
          <mxGeometry x="290" y="1120" width="100" height="40" as="geometry" />
        </mxCell>
        <mxCell id="UbaJYVVex4F2PVmXb3_e-60" value="Gender" style="ellipse;whiteSpace=wrap;html=1;align=center;" vertex="1" parent="1">
          <mxGeometry x="420" y="1240" width="100" height="40" as="geometry" />
        </mxCell>
        <mxCell id="UbaJYVVex4F2PVmXb3_e-61" value="Date_of_Birth" style="ellipse;whiteSpace=wrap;html=1;align=center;" vertex="1" parent="1">
          <mxGeometry x="540" y="1220" width="100" height="40" as="geometry" />
        </mxCell>
        <mxCell id="UbaJYVVex4F2PVmXb3_e-62" value="Address" style="ellipse;whiteSpace=wrap;html=1;align=center;" vertex="1" parent="1">
          <mxGeometry x="650" y="1200" width="100" height="40" as="geometry" />
        </mxCell>
        <mxCell id="UbaJYVVex4F2PVmXb3_e-63" value="Phone_number" style="ellipse;whiteSpace=wrap;html=1;align=center;fontStyle=0;" vertex="1" parent="1">
          <mxGeometry x="720" y="1150" width="100" height="40" as="geometry" />
        </mxCell>
        <mxCell id="UbaJYVVex4F2PVmXb3_e-64" style="rounded=0;orthogonalLoop=1;jettySize=auto;html=1;exitX=0.5;exitY=1;exitDx=0;exitDy=0;entryX=1;entryY=0;entryDx=0;entryDy=0;endArrow=none;endFill=0;" edge="1" parent="1" source="UbaJYVVex4F2PVmXb3_e-66" target="UbaJYVVex4F2PVmXb3_e-69">
          <mxGeometry relative="1" as="geometry" />
        </mxCell>
        <mxCell id="UbaJYVVex4F2PVmXb3_e-65" style="edgeStyle=orthogonalEdgeStyle;rounded=0;orthogonalLoop=1;jettySize=auto;html=1;entryX=0;entryY=0.5;entryDx=0;entryDy=0;endArrow=none;endFill=0;" edge="1" parent="1" source="UbaJYVVex4F2PVmXb3_e-66" target="UbaJYVVex4F2PVmXb3_e-175">
          <mxGeometry relative="1" as="geometry" />
        </mxCell>
        <mxCell id="UbaJYVVex4F2PVmXb3_e-66" value="&lt;b&gt;OUTPATIENT&lt;br&gt;&lt;/b&gt;" style="whiteSpace=wrap;html=1;align=center;" vertex="1" parent="1">
          <mxGeometry x="1000" y="881" width="100" height="40" as="geometry" />
        </mxCell>
        <mxCell id="UbaJYVVex4F2PVmXb3_e-67" style="rounded=0;orthogonalLoop=1;jettySize=auto;html=1;exitX=0.75;exitY=1;exitDx=0;exitDy=0;entryX=0;entryY=0;entryDx=0;entryDy=0;endArrow=none;endFill=0;" edge="1" parent="1" source="UbaJYVVex4F2PVmXb3_e-166" target="UbaJYVVex4F2PVmXb3_e-69">
          <mxGeometry relative="1" as="geometry">
            <mxPoint x="375" y="847" as="sourcePoint" />
          </mxGeometry>
        </mxCell>
        <mxCell id="UbaJYVVex4F2PVmXb3_e-68" style="rounded=0;orthogonalLoop=1;jettySize=auto;html=1;exitX=0.5;exitY=1;exitDx=0;exitDy=0;entryX=0.5;entryY=0;entryDx=0;entryDy=0;endArrow=none;endFill=0;shape=link;" edge="1" parent="1" source="UbaJYVVex4F2PVmXb3_e-69" target="UbaJYVVex4F2PVmXb3_e-53">
          <mxGeometry relative="1" as="geometry" />
        </mxCell>
        <mxCell id="UbaJYVVex4F2PVmXb3_e-69" value="o" style="ellipse;whiteSpace=wrap;html=1;aspect=fixed;" vertex="1" parent="1">
          <mxGeometry x="595" y="1040" width="30" height="30" as="geometry" />
        </mxCell>
        <mxCell id="UbaJYVVex4F2PVmXb3_e-70" value="" style="shape=requiredInterface;html=1;verticalLabelPosition=bottom;sketch=0;rotation=-140;" vertex="1" parent="1">
          <mxGeometry x="480" y="939" width="20" height="20" as="geometry" />
        </mxCell>
        <mxCell id="UbaJYVVex4F2PVmXb3_e-71" value="" style="shape=requiredInterface;html=1;verticalLabelPosition=bottom;sketch=0;rotation=-10;" vertex="1" parent="1">
          <mxGeometry x="800" y="980" width="20" height="20" as="geometry" />
        </mxCell>
        <mxCell id="UbaJYVVex4F2PVmXb3_e-72" style="rounded=0;orthogonalLoop=1;jettySize=auto;html=1;exitX=0.5;exitY=1;exitDx=0;exitDy=0;entryX=0.5;entryY=0;entryDx=0;entryDy=0;endArrow=none;endFill=0;shape=link;" edge="1" parent="1" source="UbaJYVVex4F2PVmXb3_e-120" target="UbaJYVVex4F2PVmXb3_e-177">
          <mxGeometry relative="1" as="geometry">
            <mxPoint x="1550" y="622" as="sourcePoint" />
          </mxGeometry>
        </mxCell>
        <mxCell id="UbaJYVVex4F2PVmXb3_e-73" style="rounded=0;orthogonalLoop=1;jettySize=auto;html=1;exitX=0;exitY=0.5;exitDx=0;exitDy=0;entryX=1;entryY=0.5;entryDx=0;entryDy=0;endArrow=none;endFill=0;shape=link;" edge="1" parent="1" source="UbaJYVVex4F2PVmXb3_e-120" target="UbaJYVVex4F2PVmXb3_e-123">
          <mxGeometry relative="1" as="geometry">
            <mxPoint x="1490" y="592" as="sourcePoint" />
            <mxPoint x="1065.0000000000005" y="592" as="targetPoint" />
          </mxGeometry>
        </mxCell>
        <mxCell id="UbaJYVVex4F2PVmXb3_e-74" value="1" style="text;html=1;align=center;verticalAlign=middle;resizable=0;points=[];autosize=1;" vertex="1" parent="1">
          <mxGeometry x="1140" y="450" width="30" height="30" as="geometry" />
        </mxCell>
        <mxCell id="UbaJYVVex4F2PVmXb3_e-75" value="1" style="text;html=1;align=center;verticalAlign=middle;resizable=0;points=[];autosize=1;" vertex="1" parent="1">
          <mxGeometry x="1175" y="567" width="30" height="30" as="geometry" />
        </mxCell>
        <mxCell id="UbaJYVVex4F2PVmXb3_e-76" style="rounded=0;orthogonalLoop=1;jettySize=auto;html=1;exitX=0.5;exitY=1;exitDx=0;exitDy=0;endArrow=none;endFill=0;entryX=0.5;entryY=0;entryDx=0;entryDy=0;" edge="1" parent="1" source="UbaJYVVex4F2PVmXb3_e-77" target="UbaJYVVex4F2PVmXb3_e-123">
          <mxGeometry relative="1" as="geometry">
            <mxPoint x="1010" y="500" as="targetPoint" />
          </mxGeometry>
        </mxCell>
        <mxCell id="UbaJYVVex4F2PVmXb3_e-77" value="Diagnosis" style="ellipse;whiteSpace=wrap;html=1;align=center;" vertex="1" parent="1">
          <mxGeometry x="940" y="450" width="100" height="40" as="geometry" />
        </mxCell>
        <mxCell id="UbaJYVVex4F2PVmXb3_e-78" style="rounded=0;orthogonalLoop=1;jettySize=auto;html=1;exitX=0.5;exitY=0;exitDx=0;exitDy=0;entryX=1;entryY=1;entryDx=0;entryDy=0;endArrow=none;endFill=0;" edge="1" parent="1" source="UbaJYVVex4F2PVmXb3_e-79" target="UbaJYVVex4F2PVmXb3_e-123">
          <mxGeometry relative="1" as="geometry">
            <mxPoint x="1150.145520603814" y="606.2255678634485" as="targetPoint" />
          </mxGeometry>
        </mxCell>
        <mxCell id="UbaJYVVex4F2PVmXb3_e-79" value="Next_datetime" style="ellipse;whiteSpace=wrap;html=1;align=center;" vertex="1" parent="1">
          <mxGeometry x="1020" y="567" width="100" height="40" as="geometry" />
        </mxCell>
        <mxCell id="UbaJYVVex4F2PVmXb3_e-80" style="rounded=0;orthogonalLoop=1;jettySize=auto;html=1;exitX=1;exitY=0;exitDx=0;exitDy=0;entryX=0.25;entryY=1;entryDx=0;entryDy=0;endArrow=none;endFill=0;" edge="1" parent="1" source="UbaJYVVex4F2PVmXb3_e-81" target="UbaJYVVex4F2PVmXb3_e-123">
          <mxGeometry relative="1" as="geometry">
            <mxPoint x="1115" y="612" as="targetPoint" />
          </mxGeometry>
        </mxCell>
        <mxCell id="UbaJYVVex4F2PVmXb3_e-81" value="Fee" style="ellipse;whiteSpace=wrap;html=1;align=center;" vertex="1" parent="1">
          <mxGeometry x="850" y="572" width="100" height="40" as="geometry" />
        </mxCell>
        <mxCell id="UbaJYVVex4F2PVmXb3_e-82" style="rounded=0;orthogonalLoop=1;jettySize=auto;html=1;exitX=0.5;exitY=1;exitDx=0;exitDy=0;entryX=0.5;entryY=0;entryDx=0;entryDy=0;endArrow=none;endFill=0;shape=link;" edge="1" parent="1" source="UbaJYVVex4F2PVmXb3_e-83" target="UbaJYVVex4F2PVmXb3_e-165">
          <mxGeometry relative="1" as="geometry">
            <mxPoint x="130" y="622" as="sourcePoint" />
            <mxPoint x="325" y="807" as="targetPoint" />
          </mxGeometry>
        </mxCell>
        <mxCell id="UbaJYVVex4F2PVmXb3_e-83" value="TAKE_CARE" style="shape=rhombus;perimeter=rhombusPerimeter;whiteSpace=wrap;html=1;align=center;" vertex="1" parent="1">
          <mxGeometry x="-120" y="562" width="120" height="60" as="geometry" />
        </mxCell>
        <mxCell id="UbaJYVVex4F2PVmXb3_e-84" value="1" style="text;html=1;align=center;verticalAlign=middle;resizable=0;points=[];autosize=1;" vertex="1" parent="1">
          <mxGeometry x="-70" y="510" width="30" height="30" as="geometry" />
        </mxCell>
        <mxCell id="UbaJYVVex4F2PVmXb3_e-85" style="rounded=0;orthogonalLoop=1;jettySize=auto;html=1;exitX=0.5;exitY=1;exitDx=0;exitDy=0;entryX=0.75;entryY=0;entryDx=0;entryDy=0;endArrow=none;endFill=0;shape=link;" edge="1" parent="1" source="UbaJYVVex4F2PVmXb3_e-136" target="UbaJYVVex4F2PVmXb3_e-165">
          <mxGeometry relative="1" as="geometry">
            <mxPoint x="160.00000000000023" y="586" as="sourcePoint" />
            <mxPoint x="350" y="807" as="targetPoint" />
          </mxGeometry>
        </mxCell>
        <mxCell id="UbaJYVVex4F2PVmXb3_e-86" style="rounded=0;orthogonalLoop=1;jettySize=auto;html=1;exitX=0;exitY=1;exitDx=0;exitDy=0;entryX=0.75;entryY=1;entryDx=0;entryDy=0;endArrow=none;endFill=0;" edge="1" parent="1" source="UbaJYVVex4F2PVmXb3_e-87" target="UbaJYVVex4F2PVmXb3_e-134">
          <mxGeometry relative="1" as="geometry" />
        </mxCell>
        <mxCell id="UbaJYVVex4F2PVmXb3_e-87" value="Result" style="ellipse;whiteSpace=wrap;html=1;align=center;" vertex="1" parent="1">
          <mxGeometry x="535" y="550" width="100" height="40" as="geometry" />
        </mxCell>
        <mxCell id="UbaJYVVex4F2PVmXb3_e-88" style="rounded=0;orthogonalLoop=1;jettySize=auto;html=1;exitX=0.5;exitY=0;exitDx=0;exitDy=0;entryX=0.5;entryY=1;entryDx=0;entryDy=0;endArrow=none;endFill=0;" edge="1" parent="1">
          <mxGeometry relative="1" as="geometry">
            <mxPoint x="669.9999999999999" y="505" as="sourcePoint" />
            <mxPoint x="639" y="480" as="targetPoint" />
          </mxGeometry>
        </mxCell>
        <mxCell id="UbaJYVVex4F2PVmXb3_e-89" style="rounded=0;orthogonalLoop=1;jettySize=auto;html=1;exitX=1;exitY=0;exitDx=0;exitDy=0;entryX=0;entryY=1;entryDx=0;entryDy=0;endArrow=none;endFill=0;" edge="1" parent="1" target="UbaJYVVex4F2PVmXb3_e-90">
          <mxGeometry relative="1" as="geometry">
            <mxPoint x="705.2798743454181" y="510.8277427843193" as="sourcePoint" />
          </mxGeometry>
        </mxCell>
        <mxCell id="UbaJYVVex4F2PVmXb3_e-90" value="End_datetime" style="ellipse;whiteSpace=wrap;html=1;align=center;" vertex="1" parent="1">
          <mxGeometry x="709" y="450" width="100" height="40" as="geometry" />
        </mxCell>
        <mxCell id="UbaJYVVex4F2PVmXb3_e-91" style="rounded=0;orthogonalLoop=1;jettySize=auto;html=1;exitX=0.5;exitY=1;exitDx=0;exitDy=0;entryX=0.5;entryY=0;entryDx=0;entryDy=0;endArrow=none;endFill=0;shape=link;" edge="1" parent="1" source="UbaJYVVex4F2PVmXb3_e-93" target="UbaJYVVex4F2PVmXb3_e-105">
          <mxGeometry relative="1" as="geometry" />
        </mxCell>
        <mxCell id="UbaJYVVex4F2PVmXb3_e-92" style="edgeStyle=orthogonalEdgeStyle;rounded=0;orthogonalLoop=1;jettySize=auto;html=1;exitX=1;exitY=0.5;exitDx=0;exitDy=0;entryX=0;entryY=0.5;entryDx=0;entryDy=0;endArrow=none;endFill=0;" edge="1" parent="1" source="UbaJYVVex4F2PVmXb3_e-93" target="UbaJYVVex4F2PVmXb3_e-126">
          <mxGeometry relative="1" as="geometry" />
        </mxCell>
        <mxCell id="UbaJYVVex4F2PVmXb3_e-93" value="&lt;b&gt;MEDICATION&lt;/b&gt;" style="whiteSpace=wrap;html=1;align=center;" vertex="1" parent="1">
          <mxGeometry x="690" y="673" width="100" height="40" as="geometry" />
        </mxCell>
        <mxCell id="UbaJYVVex4F2PVmXb3_e-94" style="rounded=0;orthogonalLoop=1;jettySize=auto;html=1;exitX=1;exitY=0;exitDx=0;exitDy=0;entryX=0;entryY=0.75;entryDx=0;entryDy=0;endArrow=none;endFill=0;" edge="1" parent="1" source="UbaJYVVex4F2PVmXb3_e-95" target="UbaJYVVex4F2PVmXb3_e-93">
          <mxGeometry relative="1" as="geometry" />
        </mxCell>
        <mxCell id="UbaJYVVex4F2PVmXb3_e-95" value="Code" style="ellipse;whiteSpace=wrap;html=1;align=center;fontStyle=4;" vertex="1" parent="1">
          <mxGeometry x="570" y="715" width="100" height="40" as="geometry" />
        </mxCell>
        <mxCell id="UbaJYVVex4F2PVmXb3_e-96" style="rounded=0;orthogonalLoop=1;jettySize=auto;html=1;exitX=0.5;exitY=1;exitDx=0;exitDy=0;entryX=0.25;entryY=0;entryDx=0;entryDy=0;endArrow=none;endFill=0;" edge="1" parent="1" source="UbaJYVVex4F2PVmXb3_e-97" target="UbaJYVVex4F2PVmXb3_e-93">
          <mxGeometry relative="1" as="geometry" />
        </mxCell>
        <mxCell id="UbaJYVVex4F2PVmXb3_e-97" value="Name" style="ellipse;whiteSpace=wrap;html=1;align=center;" vertex="1" parent="1">
          <mxGeometry x="565" y="615" width="100" height="40" as="geometry" />
        </mxCell>
        <mxCell id="UbaJYVVex4F2PVmXb3_e-98" style="rounded=0;orthogonalLoop=1;jettySize=auto;html=1;exitX=0.5;exitY=1;exitDx=0;exitDy=0;entryX=0.5;entryY=0;entryDx=0;entryDy=0;endArrow=none;endFill=0;" edge="1" parent="1" source="UbaJYVVex4F2PVmXb3_e-147" target="UbaJYVVex4F2PVmXb3_e-93">
          <mxGeometry relative="1" as="geometry">
            <mxPoint x="710" y="631" as="sourcePoint" />
          </mxGeometry>
        </mxCell>
        <mxCell id="UbaJYVVex4F2PVmXb3_e-99" style="rounded=0;orthogonalLoop=1;jettySize=auto;html=1;exitX=0.5;exitY=1;exitDx=0;exitDy=0;entryX=0.75;entryY=0;entryDx=0;entryDy=0;endArrow=none;endFill=0;" edge="1" parent="1" source="UbaJYVVex4F2PVmXb3_e-100" target="UbaJYVVex4F2PVmXb3_e-93">
          <mxGeometry relative="1" as="geometry" />
        </mxCell>
        <mxCell id="UbaJYVVex4F2PVmXb3_e-100" value="Price" style="ellipse;whiteSpace=wrap;html=1;align=center;" vertex="1" parent="1">
          <mxGeometry x="765" y="607" width="100" height="40" as="geometry" />
        </mxCell>
        <mxCell id="UbaJYVVex4F2PVmXb3_e-101" style="rounded=0;orthogonalLoop=1;jettySize=auto;html=1;exitX=0.5;exitY=1;exitDx=0;exitDy=0;entryX=0.5;entryY=0;entryDx=0;entryDy=0;endArrow=none;endFill=0;shape=link;" edge="1" parent="1" source="UbaJYVVex4F2PVmXb3_e-105" target="UbaJYVVex4F2PVmXb3_e-110">
          <mxGeometry relative="1" as="geometry" />
        </mxCell>
        <mxCell id="UbaJYVVex4F2PVmXb3_e-102" style="rounded=0;orthogonalLoop=1;jettySize=auto;html=1;exitX=0;exitY=1;exitDx=0;exitDy=0;entryX=0;entryY=0.5;entryDx=0;entryDy=0;endArrow=none;endFill=0;" edge="1" parent="1" source="UbaJYVVex4F2PVmXb3_e-105" target="UbaJYVVex4F2PVmXb3_e-117">
          <mxGeometry relative="1" as="geometry" />
        </mxCell>
        <mxCell id="UbaJYVVex4F2PVmXb3_e-103" style="rounded=0;orthogonalLoop=1;jettySize=auto;html=1;exitX=0;exitY=0.5;exitDx=0;exitDy=0;entryX=1;entryY=0.5;entryDx=0;entryDy=0;endArrow=none;endFill=0;" edge="1" parent="1" source="UbaJYVVex4F2PVmXb3_e-105" target="UbaJYVVex4F2PVmXb3_e-118">
          <mxGeometry relative="1" as="geometry">
            <mxPoint x="635" y="780" as="targetPoint" />
          </mxGeometry>
        </mxCell>
        <mxCell id="UbaJYVVex4F2PVmXb3_e-104" style="rounded=0;orthogonalLoop=1;jettySize=auto;html=1;exitX=1;exitY=1;exitDx=0;exitDy=0;entryX=0;entryY=0;entryDx=0;entryDy=0;endArrow=none;endFill=0;" edge="1" parent="1" source="UbaJYVVex4F2PVmXb3_e-105" target="UbaJYVVex4F2PVmXb3_e-119">
          <mxGeometry relative="1" as="geometry" />
        </mxCell>
        <mxCell id="UbaJYVVex4F2PVmXb3_e-105" value="IMPORT" style="shape=rhombus;perimeter=rhombusPerimeter;whiteSpace=wrap;html=1;align=center;" vertex="1" parent="1">
          <mxGeometry x="680" y="760" width="120" height="60" as="geometry" />
        </mxCell>
        <mxCell id="UbaJYVVex4F2PVmXb3_e-106" style="rounded=0;orthogonalLoop=1;jettySize=auto;html=1;exitX=0;exitY=0.5;exitDx=0;exitDy=0;entryX=1;entryY=1;entryDx=0;entryDy=0;endArrow=none;endFill=0;" edge="1" parent="1" source="UbaJYVVex4F2PVmXb3_e-110" target="UbaJYVVex4F2PVmXb3_e-113">
          <mxGeometry relative="1" as="geometry" />
        </mxCell>
        <mxCell id="UbaJYVVex4F2PVmXb3_e-107" style="rounded=0;orthogonalLoop=1;jettySize=auto;html=1;exitX=0;exitY=0.75;exitDx=0;exitDy=0;entryX=1;entryY=0;entryDx=0;entryDy=0;endArrow=none;endFill=0;" edge="1" parent="1" source="UbaJYVVex4F2PVmXb3_e-110" target="UbaJYVVex4F2PVmXb3_e-114">
          <mxGeometry relative="1" as="geometry" />
        </mxCell>
        <mxCell id="UbaJYVVex4F2PVmXb3_e-108" style="rounded=0;orthogonalLoop=1;jettySize=auto;html=1;exitX=0.5;exitY=1;exitDx=0;exitDy=0;entryX=0.5;entryY=0;entryDx=0;entryDy=0;endArrow=none;endFill=0;" edge="1" parent="1" source="UbaJYVVex4F2PVmXb3_e-110" target="UbaJYVVex4F2PVmXb3_e-115">
          <mxGeometry relative="1" as="geometry" />
        </mxCell>
        <mxCell id="UbaJYVVex4F2PVmXb3_e-109" style="rounded=0;orthogonalLoop=1;jettySize=auto;html=1;exitX=1;exitY=0.5;exitDx=0;exitDy=0;entryX=0.5;entryY=0;entryDx=0;entryDy=0;endArrow=none;endFill=0;" edge="1" parent="1" source="UbaJYVVex4F2PVmXb3_e-110" target="UbaJYVVex4F2PVmXb3_e-116">
          <mxGeometry relative="1" as="geometry" />
        </mxCell>
        <mxCell id="UbaJYVVex4F2PVmXb3_e-110" value="&lt;b&gt;PROVIDER&lt;/b&gt;" style="whiteSpace=wrap;html=1;align=center;" vertex="1" parent="1">
          <mxGeometry x="690" y="880" width="100" height="40" as="geometry" />
        </mxCell>
        <mxCell id="UbaJYVVex4F2PVmXb3_e-111" value="N" style="text;html=1;align=center;verticalAlign=middle;resizable=0;points=[];autosize=1;" vertex="1" parent="1">
          <mxGeometry x="740" y="840" width="30" height="30" as="geometry" />
        </mxCell>
        <mxCell id="UbaJYVVex4F2PVmXb3_e-112" value="M" style="text;html=1;align=center;verticalAlign=middle;resizable=0;points=[];autosize=1;" vertex="1" parent="1">
          <mxGeometry x="740" y="720" width="30" height="30" as="geometry" />
        </mxCell>
        <mxCell id="UbaJYVVex4F2PVmXb3_e-113" value="Number" style="ellipse;whiteSpace=wrap;html=1;align=center;fontStyle=4;" vertex="1" parent="1">
          <mxGeometry x="550" y="886" width="100" height="40" as="geometry" />
        </mxCell>
        <mxCell id="UbaJYVVex4F2PVmXb3_e-114" value="Name" style="ellipse;whiteSpace=wrap;html=1;align=center;" vertex="1" parent="1">
          <mxGeometry x="565" y="940" width="100" height="40" as="geometry" />
        </mxCell>
        <mxCell id="UbaJYVVex4F2PVmXb3_e-115" value="Address" style="ellipse;whiteSpace=wrap;html=1;align=center;" vertex="1" parent="1">
          <mxGeometry x="680" y="940" width="100" height="40" as="geometry" />
        </mxCell>
        <mxCell id="UbaJYVVex4F2PVmXb3_e-116" value="Phone" style="ellipse;whiteSpace=wrap;html=1;align=center;" vertex="1" parent="1">
          <mxGeometry x="800" y="910" width="100" height="40" as="geometry" />
        </mxCell>
        <mxCell id="UbaJYVVex4F2PVmXb3_e-117" value="Imported_date" style="ellipse;whiteSpace=wrap;html=1;align=center;" vertex="1" parent="1">
          <mxGeometry x="530" y="816" width="100" height="40" as="geometry" />
        </mxCell>
        <mxCell id="UbaJYVVex4F2PVmXb3_e-118" value="Price" style="ellipse;whiteSpace=wrap;html=1;align=center;" vertex="1" parent="1">
          <mxGeometry x="530" y="760" width="100" height="40" as="geometry" />
        </mxCell>
        <mxCell id="UbaJYVVex4F2PVmXb3_e-119" value="Quantity" style="ellipse;whiteSpace=wrap;html=1;align=center;" vertex="1" parent="1">
          <mxGeometry x="809" y="820" width="100" height="40" as="geometry" />
        </mxCell>
        <mxCell id="UbaJYVVex4F2PVmXb3_e-120" value="EXAMINE" style="shape=rhombus;double=1;perimeter=rhombusPerimeter;whiteSpace=wrap;html=1;align=center;" vertex="1" parent="1">
          <mxGeometry x="1130" y="490" width="120" height="60" as="geometry" />
        </mxCell>
        <mxCell id="UbaJYVVex4F2PVmXb3_e-121" style="edgeStyle=orthogonalEdgeStyle;rounded=0;orthogonalLoop=1;jettySize=auto;html=1;entryX=0.5;entryY=0;entryDx=0;entryDy=0;endArrow=none;endFill=0;" edge="1" parent="1" source="UbaJYVVex4F2PVmXb3_e-123" target="UbaJYVVex4F2PVmXb3_e-126">
          <mxGeometry relative="1" as="geometry" />
        </mxCell>
        <mxCell id="UbaJYVVex4F2PVmXb3_e-122" style="rounded=0;orthogonalLoop=1;jettySize=auto;html=1;exitX=0;exitY=0.5;exitDx=0;exitDy=0;entryX=0.5;entryY=1;entryDx=0;entryDy=0;endArrow=none;endFill=0;" edge="1" parent="1" source="UbaJYVVex4F2PVmXb3_e-123" target="UbaJYVVex4F2PVmXb3_e-146">
          <mxGeometry relative="1" as="geometry" />
        </mxCell>
        <mxCell id="UbaJYVVex4F2PVmXb3_e-123" value="EXAMINE_detail" style="shape=ext;margin=3;double=1;whiteSpace=wrap;html=1;align=center;" vertex="1" parent="1">
          <mxGeometry x="930" y="500" width="100" height="40" as="geometry" />
        </mxCell>
        <mxCell id="UbaJYVVex4F2PVmXb3_e-124" value="N" style="text;html=1;align=center;verticalAlign=middle;resizable=0;points=[];autosize=1;" vertex="1" parent="1">
          <mxGeometry x="1070" y="490" width="30" height="30" as="geometry" />
        </mxCell>
        <mxCell id="UbaJYVVex4F2PVmXb3_e-125" style="edgeStyle=orthogonalEdgeStyle;rounded=0;orthogonalLoop=1;jettySize=auto;html=1;entryX=0;entryY=0.5;entryDx=0;entryDy=0;endArrow=none;endFill=0;" edge="1" parent="1" source="UbaJYVVex4F2PVmXb3_e-126" target="UbaJYVVex4F2PVmXb3_e-185">
          <mxGeometry relative="1" as="geometry" />
        </mxCell>
        <mxCell id="UbaJYVVex4F2PVmXb3_e-126" value="USE_FOR" style="shape=rhombus;perimeter=rhombusPerimeter;whiteSpace=wrap;html=1;align=center;" vertex="1" parent="1">
          <mxGeometry x="920" y="663" width="120" height="60" as="geometry" />
        </mxCell>
        <mxCell id="UbaJYVVex4F2PVmXb3_e-127" value="M" style="text;html=1;align=center;verticalAlign=middle;resizable=0;points=[];autosize=1;" vertex="1" parent="1">
          <mxGeometry x="980" y="567" width="30" height="30" as="geometry" />
        </mxCell>
        <mxCell id="UbaJYVVex4F2PVmXb3_e-128" value="N" style="text;html=1;align=center;verticalAlign=middle;resizable=0;points=[];autosize=1;" vertex="1" parent="1">
          <mxGeometry x="844" y="670" width="30" height="30" as="geometry" />
        </mxCell>
        <mxCell id="UbaJYVVex4F2PVmXb3_e-129" style="rounded=0;orthogonalLoop=1;jettySize=auto;html=1;exitX=0.5;exitY=1;exitDx=0;exitDy=0;entryX=0.5;entryY=0;entryDx=0;entryDy=0;endArrow=none;endFill=0;" edge="1" parent="1" source="UbaJYVVex4F2PVmXb3_e-130" target="UbaJYVVex4F2PVmXb3_e-39">
          <mxGeometry relative="1" as="geometry" />
        </mxCell>
        <mxCell id="UbaJYVVex4F2PVmXb3_e-130" value="DCode" style="ellipse;whiteSpace=wrap;html=1;align=center;fontStyle=4;" vertex="1" parent="1">
          <mxGeometry x="980" y="130" width="100" height="40" as="geometry" />
        </mxCell>
        <mxCell id="UbaJYVVex4F2PVmXb3_e-131" style="rounded=0;orthogonalLoop=1;jettySize=auto;html=1;exitX=0;exitY=1;exitDx=0;exitDy=0;entryX=0.75;entryY=0;entryDx=0;entryDy=0;endArrow=none;endFill=0;" edge="1" parent="1" source="UbaJYVVex4F2PVmXb3_e-132" target="UbaJYVVex4F2PVmXb3_e-39">
          <mxGeometry relative="1" as="geometry" />
        </mxCell>
        <mxCell id="UbaJYVVex4F2PVmXb3_e-132" value="Title" style="ellipse;whiteSpace=wrap;html=1;align=center;" vertex="1" parent="1">
          <mxGeometry x="1095" y="130" width="100" height="40" as="geometry" />
        </mxCell>
        <mxCell id="UbaJYVVex4F2PVmXb3_e-133" style="rounded=0;orthogonalLoop=1;jettySize=auto;html=1;exitX=0;exitY=0.5;exitDx=0;exitDy=0;entryX=1;entryY=0.5;entryDx=0;entryDy=0;shape=link;" edge="1" parent="1" source="UbaJYVVex4F2PVmXb3_e-134" target="UbaJYVVex4F2PVmXb3_e-136">
          <mxGeometry relative="1" as="geometry" />
        </mxCell>
        <mxCell id="UbaJYVVex4F2PVmXb3_e-134" value="TREAT_attribute" style="shape=ext;margin=3;double=1;whiteSpace=wrap;html=1;align=center;" vertex="1" parent="1">
          <mxGeometry x="440" y="500" width="100" height="40" as="geometry" />
        </mxCell>
        <mxCell id="UbaJYVVex4F2PVmXb3_e-135" style="rounded=0;orthogonalLoop=1;jettySize=auto;html=1;exitX=0;exitY=0.5;exitDx=0;exitDy=0;entryX=1;entryY=0.25;entryDx=0;entryDy=0;endArrow=none;endFill=0;" edge="1" parent="1" target="UbaJYVVex4F2PVmXb3_e-134">
          <mxGeometry relative="1" as="geometry">
            <mxPoint x="620.0000000000013" y="525" as="sourcePoint" />
          </mxGeometry>
        </mxCell>
        <mxCell id="UbaJYVVex4F2PVmXb3_e-136" value="TREAT" style="shape=rhombus;double=1;perimeter=rhombusPerimeter;whiteSpace=wrap;html=1;align=center;" vertex="1" parent="1">
          <mxGeometry x="270" y="490" width="120" height="60" as="geometry" />
        </mxCell>
        <mxCell id="UbaJYVVex4F2PVmXb3_e-137" style="rounded=0;orthogonalLoop=1;jettySize=auto;html=1;exitX=1;exitY=0.5;exitDx=0;exitDy=0;entryX=0;entryY=0.5;entryDx=0;entryDy=0;endArrow=none;endFill=0;" edge="1" parent="1" source="UbaJYVVex4F2PVmXb3_e-140" target="UbaJYVVex4F2PVmXb3_e-93">
          <mxGeometry relative="1" as="geometry" />
        </mxCell>
        <mxCell id="UbaJYVVex4F2PVmXb3_e-138" style="edgeStyle=orthogonalEdgeStyle;rounded=0;orthogonalLoop=1;jettySize=auto;html=1;entryX=0.5;entryY=1;entryDx=0;entryDy=0;endArrow=none;endFill=0;" edge="1" parent="1" source="UbaJYVVex4F2PVmXb3_e-140" target="UbaJYVVex4F2PVmXb3_e-134">
          <mxGeometry relative="1" as="geometry" />
        </mxCell>
        <mxCell id="UbaJYVVex4F2PVmXb3_e-139" style="edgeStyle=orthogonalEdgeStyle;rounded=0;orthogonalLoop=1;jettySize=auto;html=1;entryX=1;entryY=0.5;entryDx=0;entryDy=0;endArrow=none;endFill=0;" edge="1" parent="1" source="UbaJYVVex4F2PVmXb3_e-140" target="UbaJYVVex4F2PVmXb3_e-184">
          <mxGeometry relative="1" as="geometry" />
        </mxCell>
        <mxCell id="UbaJYVVex4F2PVmXb3_e-140" value="USE" style="shape=rhombus;perimeter=rhombusPerimeter;whiteSpace=wrap;html=1;align=center;" vertex="1" parent="1">
          <mxGeometry x="430" y="663" width="120" height="60" as="geometry" />
        </mxCell>
        <mxCell id="UbaJYVVex4F2PVmXb3_e-141" value="N" style="text;html=1;align=center;verticalAlign=middle;resizable=0;points=[];autosize=1;" vertex="1" parent="1">
          <mxGeometry x="400" y="490" width="30" height="30" as="geometry" />
        </mxCell>
        <mxCell id="UbaJYVVex4F2PVmXb3_e-142" value="M" style="text;html=1;align=center;verticalAlign=middle;resizable=0;points=[];autosize=1;" vertex="1" parent="1">
          <mxGeometry x="490" y="600" width="30" height="30" as="geometry" />
        </mxCell>
        <mxCell id="UbaJYVVex4F2PVmXb3_e-143" value="N" style="text;html=1;align=center;verticalAlign=middle;resizable=0;points=[];autosize=1;" vertex="1" parent="1">
          <mxGeometry x="635" y="670" width="30" height="30" as="geometry" />
        </mxCell>
        <mxCell id="UbaJYVVex4F2PVmXb3_e-144" value="1" style="text;html=1;align=center;verticalAlign=middle;resizable=0;points=[];autosize=1;" vertex="1" parent="1">
          <mxGeometry x="360" y="450" width="30" height="30" as="geometry" />
        </mxCell>
        <mxCell id="UbaJYVVex4F2PVmXb3_e-145" value="1" style="text;html=1;align=center;verticalAlign=middle;resizable=0;points=[];autosize=1;" vertex="1" parent="1">
          <mxGeometry x="270" y="550" width="30" height="30" as="geometry" />
        </mxCell>
        <mxCell id="UbaJYVVex4F2PVmXb3_e-146" value="&lt;span style=&quot;border-bottom: 1px dotted&quot;&gt;Exam_datetime&lt;/span&gt;" style="ellipse;whiteSpace=wrap;html=1;align=center;" vertex="1" parent="1">
          <mxGeometry x="820" y="470" width="100" height="40" as="geometry" />
        </mxCell>
        <mxCell id="UbaJYVVex4F2PVmXb3_e-147" value="Effects" style="ellipse;shape=doubleEllipse;margin=3;whiteSpace=wrap;html=1;align=center;" vertex="1" parent="1">
          <mxGeometry x="660" y="590" width="100" height="40" as="geometry" />
        </mxCell>
        <mxCell id="UbaJYVVex4F2PVmXb3_e-148" value="Start_datetime" style="ellipse;whiteSpace=wrap;html=1;align=center;" vertex="1" parent="1">
          <mxGeometry x="580" y="440" width="100" height="40" as="geometry" />
        </mxCell>
        <mxCell id="UbaJYVVex4F2PVmXb3_e-149" value="Code" style="ellipse;whiteSpace=wrap;html=1;align=center;fontStyle=4;" vertex="1" parent="1">
          <mxGeometry x="640" y="1060" width="100" height="40" as="geometry" />
        </mxCell>
        <mxCell id="UbaJYVVex4F2PVmXb3_e-150" value="&lt;span style=&quot;border-bottom: 1px dotted&quot;&gt;Treat_period&lt;/span&gt;" style="ellipse;whiteSpace=wrap;html=1;align=center;" vertex="1" parent="1">
          <mxGeometry x="620" y="505" width="100" height="40" as="geometry" />
        </mxCell>
        <mxCell id="UbaJYVVex4F2PVmXb3_e-151" value="Expire_date" style="ellipse;whiteSpace=wrap;html=1;align=center;" vertex="1" parent="1">
          <mxGeometry x="820" y="723" width="100" height="40" as="geometry" />
        </mxCell>
        <mxCell id="UbaJYVVex4F2PVmXb3_e-152" value="" style="endArrow=none;html=1;rounded=0;exitX=0;exitY=0.5;exitDx=0;exitDy=0;" edge="1" parent="1" source="UbaJYVVex4F2PVmXb3_e-151">
          <mxGeometry width="50" height="50" relative="1" as="geometry">
            <mxPoint x="734" y="763" as="sourcePoint" />
            <mxPoint x="784" y="713" as="targetPoint" />
          </mxGeometry>
        </mxCell>
        <mxCell id="UbaJYVVex4F2PVmXb3_e-153" value="IPCode" style="ellipse;whiteSpace=wrap;html=1;align=center;fontStyle=0;" vertex="1" parent="1">
          <mxGeometry x="280" y="1190" width="100" height="40" as="geometry" />
        </mxCell>
        <mxCell id="UbaJYVVex4F2PVmXb3_e-154" style="rounded=0;orthogonalLoop=1;jettySize=auto;html=1;exitX=1;exitY=0.5;exitDx=0;exitDy=0;entryX=0;entryY=0;entryDx=0;entryDy=0;endArrow=none;endFill=0;" edge="1" parent="1" source="UbaJYVVex4F2PVmXb3_e-155">
          <mxGeometry relative="1" as="geometry">
            <mxPoint x="-110" y="810" as="targetPoint" />
          </mxGeometry>
        </mxCell>
        <mxCell id="UbaJYVVex4F2PVmXb3_e-155" value="Admission_date" style="ellipse;whiteSpace=wrap;html=1;align=center;" vertex="1" parent="1">
          <mxGeometry x="-280" y="763" width="100" height="40" as="geometry" />
        </mxCell>
        <mxCell id="UbaJYVVex4F2PVmXb3_e-156" style="rounded=0;orthogonalLoop=1;jettySize=auto;html=1;exitX=1;exitY=0.5;exitDx=0;exitDy=0;entryX=0;entryY=0.5;entryDx=0;entryDy=0;endArrow=none;endFill=0;" edge="1" parent="1" source="UbaJYVVex4F2PVmXb3_e-157">
          <mxGeometry relative="1" as="geometry">
            <mxPoint x="-110" y="830" as="targetPoint" />
          </mxGeometry>
        </mxCell>
        <mxCell id="UbaJYVVex4F2PVmXb3_e-157" value="Diagnosis" style="ellipse;whiteSpace=wrap;html=1;align=center;" vertex="1" parent="1">
          <mxGeometry x="-300" y="819" width="100" height="40" as="geometry" />
        </mxCell>
        <mxCell id="UbaJYVVex4F2PVmXb3_e-158" style="rounded=0;orthogonalLoop=1;jettySize=auto;html=1;exitX=1;exitY=0.5;exitDx=0;exitDy=0;entryX=0;entryY=1;entryDx=0;entryDy=0;endArrow=none;endFill=0;" edge="1" parent="1" source="UbaJYVVex4F2PVmXb3_e-159">
          <mxGeometry relative="1" as="geometry">
            <mxPoint x="-110" y="850" as="targetPoint" />
          </mxGeometry>
        </mxCell>
        <mxCell id="UbaJYVVex4F2PVmXb3_e-159" value="Sickroom" style="ellipse;whiteSpace=wrap;html=1;align=center;" vertex="1" parent="1">
          <mxGeometry x="-290" y="883" width="100" height="40" as="geometry" />
        </mxCell>
        <mxCell id="UbaJYVVex4F2PVmXb3_e-160" style="rounded=0;orthogonalLoop=1;jettySize=auto;html=1;exitX=1;exitY=0;exitDx=0;exitDy=0;entryX=0.25;entryY=1;entryDx=0;entryDy=0;endArrow=none;endFill=0;" edge="1" parent="1" source="UbaJYVVex4F2PVmXb3_e-161">
          <mxGeometry relative="1" as="geometry">
            <mxPoint x="-85" y="850" as="targetPoint" />
          </mxGeometry>
        </mxCell>
        <mxCell id="UbaJYVVex4F2PVmXb3_e-161" value="Discharge_date" style="ellipse;whiteSpace=wrap;html=1;align=center;" vertex="1" parent="1">
          <mxGeometry x="-220" y="929" width="100" height="40" as="geometry" />
        </mxCell>
        <mxCell id="UbaJYVVex4F2PVmXb3_e-162" style="rounded=0;orthogonalLoop=1;jettySize=auto;html=1;exitX=0.5;exitY=0;exitDx=0;exitDy=0;entryX=0.5;entryY=1;entryDx=0;entryDy=0;endArrow=none;endFill=0;" edge="1" parent="1" source="UbaJYVVex4F2PVmXb3_e-163">
          <mxGeometry relative="1" as="geometry">
            <mxPoint x="-60" y="850" as="targetPoint" />
          </mxGeometry>
        </mxCell>
        <mxCell id="UbaJYVVex4F2PVmXb3_e-163" value="Fee" style="ellipse;whiteSpace=wrap;html=1;align=center;" vertex="1" parent="1">
          <mxGeometry x="-90" y="934" width="100" height="40" as="geometry" />
        </mxCell>
        <mxCell id="UbaJYVVex4F2PVmXb3_e-164" style="edgeStyle=orthogonalEdgeStyle;rounded=0;orthogonalLoop=1;jettySize=auto;html=1;entryX=0;entryY=0.5;entryDx=0;entryDy=0;endArrow=none;endFill=0;shape=link;" edge="1" parent="1" source="UbaJYVVex4F2PVmXb3_e-165" target="UbaJYVVex4F2PVmXb3_e-170">
          <mxGeometry relative="1" as="geometry" />
        </mxCell>
        <mxCell id="UbaJYVVex4F2PVmXb3_e-165" value="IP_DETAIL" style="shape=ext;margin=3;double=1;whiteSpace=wrap;html=1;align=center;" vertex="1" parent="1">
          <mxGeometry x="-110" y="809" width="100" height="40" as="geometry" />
        </mxCell>
        <mxCell id="UbaJYVVex4F2PVmXb3_e-166" value="&lt;b&gt;INPATIENT&lt;/b&gt;" style="whiteSpace=wrap;html=1;align=center;" vertex="1" parent="1">
          <mxGeometry x="300" y="809" width="100" height="40" as="geometry" />
        </mxCell>
        <mxCell id="UbaJYVVex4F2PVmXb3_e-167" value="&lt;span style=&quot;border-bottom: 1px dotted&quot;&gt;IP_visit&lt;/span&gt;" style="ellipse;whiteSpace=wrap;html=1;align=center;" vertex="1" parent="1">
          <mxGeometry x="-270" y="698" width="100" height="40" as="geometry" />
        </mxCell>
        <mxCell id="UbaJYVVex4F2PVmXb3_e-168" value="" style="endArrow=none;html=1;rounded=0;entryX=1;entryY=1;entryDx=0;entryDy=0;exitX=0.5;exitY=0;exitDx=0;exitDy=0;" edge="1" parent="1" source="UbaJYVVex4F2PVmXb3_e-165" target="UbaJYVVex4F2PVmXb3_e-167">
          <mxGeometry width="50" height="50" relative="1" as="geometry">
            <mxPoint x="310" y="693" as="sourcePoint" />
            <mxPoint x="360" y="643" as="targetPoint" />
          </mxGeometry>
        </mxCell>
        <mxCell id="UbaJYVVex4F2PVmXb3_e-169" style="edgeStyle=orthogonalEdgeStyle;rounded=0;orthogonalLoop=1;jettySize=auto;html=1;entryX=0;entryY=0.5;entryDx=0;entryDy=0;endArrow=none;endFill=0;" edge="1" parent="1" source="UbaJYVVex4F2PVmXb3_e-170" target="UbaJYVVex4F2PVmXb3_e-166">
          <mxGeometry relative="1" as="geometry" />
        </mxCell>
        <mxCell id="UbaJYVVex4F2PVmXb3_e-170" value="HAS" style="shape=rhombus;double=1;perimeter=rhombusPerimeter;whiteSpace=wrap;html=1;align=center;" vertex="1" parent="1">
          <mxGeometry x="90" y="799" width="120" height="60" as="geometry" />
        </mxCell>
        <mxCell id="UbaJYVVex4F2PVmXb3_e-171" value="1" style="text;html=1;align=center;verticalAlign=middle;resizable=0;points=[];autosize=1;" vertex="1" parent="1">
          <mxGeometry x="210" y="800" width="30" height="30" as="geometry" />
        </mxCell>
        <mxCell id="UbaJYVVex4F2PVmXb3_e-172" value="N" style="text;html=1;align=center;verticalAlign=middle;resizable=0;points=[];autosize=1;" vertex="1" parent="1">
          <mxGeometry x="60" y="798" width="30" height="30" as="geometry" />
        </mxCell>
        <mxCell id="UbaJYVVex4F2PVmXb3_e-173" value="N" style="text;html=1;align=center;verticalAlign=middle;resizable=0;points=[];autosize=1;" vertex="1" parent="1">
          <mxGeometry x="-120" y="615" width="30" height="30" as="geometry" />
        </mxCell>
        <mxCell id="UbaJYVVex4F2PVmXb3_e-174" style="edgeStyle=orthogonalEdgeStyle;rounded=0;orthogonalLoop=1;jettySize=auto;html=1;entryX=0;entryY=0.5;entryDx=0;entryDy=0;shape=link;" edge="1" parent="1" source="UbaJYVVex4F2PVmXb3_e-175" target="UbaJYVVex4F2PVmXb3_e-177">
          <mxGeometry relative="1" as="geometry" />
        </mxCell>
        <mxCell id="UbaJYVVex4F2PVmXb3_e-175" value="HAS" style="shape=rhombus;double=1;perimeter=rhombusPerimeter;whiteSpace=wrap;html=1;align=center;" vertex="1" parent="1">
          <mxGeometry x="1170" y="871" width="120" height="60" as="geometry" />
        </mxCell>
        <mxCell id="UbaJYVVex4F2PVmXb3_e-176" style="edgeStyle=orthogonalEdgeStyle;rounded=0;orthogonalLoop=1;jettySize=auto;html=1;entryX=0.5;entryY=0;entryDx=0;entryDy=0;endArrow=none;endFill=0;" edge="1" parent="1" source="UbaJYVVex4F2PVmXb3_e-177">
          <mxGeometry relative="1" as="geometry">
            <mxPoint x="1420" y="991" as="targetPoint" />
          </mxGeometry>
        </mxCell>
        <mxCell id="UbaJYVVex4F2PVmXb3_e-177" value="OP_DETAIL" style="shape=ext;margin=3;double=1;whiteSpace=wrap;html=1;align=center;" vertex="1" parent="1">
          <mxGeometry x="1360" y="876" width="120" height="50" as="geometry" />
        </mxCell>
        <mxCell id="UbaJYVVex4F2PVmXb3_e-178" value="1" style="text;html=1;align=center;verticalAlign=middle;resizable=0;points=[];autosize=1;" vertex="1" parent="1">
          <mxGeometry x="1140" y="867" width="30" height="30" as="geometry" />
        </mxCell>
        <mxCell id="UbaJYVVex4F2PVmXb3_e-179" value="N" style="text;html=1;align=center;verticalAlign=middle;resizable=0;points=[];autosize=1;" vertex="1" parent="1">
          <mxGeometry x="1310" y="867" width="30" height="30" as="geometry" />
        </mxCell>
        <mxCell id="UbaJYVVex4F2PVmXb3_e-180" value="&lt;span style=&quot;border-bottom: 1px dotted&quot;&gt;OP_visit&lt;/span&gt;" style="ellipse;whiteSpace=wrap;html=1;align=center;" vertex="1" parent="1">
          <mxGeometry x="1370" y="991" width="100" height="40" as="geometry" />
        </mxCell>
        <mxCell id="UbaJYVVex4F2PVmXb3_e-181" value="" style="endArrow=none;html=1;rounded=0;entryX=0;entryY=0.5;entryDx=0;entryDy=0;exitX=1;exitY=0.5;exitDx=0;exitDy=0;" edge="1" parent="1" source="UbaJYVVex4F2PVmXb3_e-153" target="UbaJYVVex4F2PVmXb3_e-53">
          <mxGeometry width="50" height="50" relative="1" as="geometry">
            <mxPoint x="480" y="940" as="sourcePoint" />
            <mxPoint x="530" y="890" as="targetPoint" />
          </mxGeometry>
        </mxCell>
        <mxCell id="UbaJYVVex4F2PVmXb3_e-182" value="OPCode" style="ellipse;whiteSpace=wrap;html=1;align=center;fontStyle=0;" vertex="1" parent="1">
          <mxGeometry x="800" y="1090" width="100" height="40" as="geometry" />
        </mxCell>
        <mxCell id="UbaJYVVex4F2PVmXb3_e-183" value="" style="endArrow=none;html=1;rounded=0;entryX=0;entryY=0.5;entryDx=0;entryDy=0;exitX=1;exitY=0.25;exitDx=0;exitDy=0;" edge="1" parent="1" source="UbaJYVVex4F2PVmXb3_e-53" target="UbaJYVVex4F2PVmXb3_e-182">
          <mxGeometry width="50" height="50" relative="1" as="geometry">
            <mxPoint x="480" y="940" as="sourcePoint" />
            <mxPoint x="530" y="890" as="targetPoint" />
          </mxGeometry>
        </mxCell>
        <mxCell id="UbaJYVVex4F2PVmXb3_e-184" value="NumOfMed" style="ellipse;whiteSpace=wrap;html=1;align=center;" vertex="1" parent="1">
          <mxGeometry x="270" y="673" width="100" height="40" as="geometry" />
        </mxCell>
        <mxCell id="UbaJYVVex4F2PVmXb3_e-185" value="NumOfMed" style="ellipse;whiteSpace=wrap;html=1;align=center;" vertex="1" parent="1">
          <mxGeometry x="1095" y="673" width="100" height="40" as="geometry" />
        </mxCell>
      </root>
    </mxGraphModel>
  </diagram>
</mxfile>
